PathFileType	4	(X/Y/Z)	C:/Users/opensim2020/Desktop/walking_exp_matlab/subject03_walking08_straight_02.trc																																																																																																																																																							
DataRate	CameraRate	NumFrames	NumMarkers	Units	OrigDataRate	OrigDataStartFrame	OrigNumFrames																																																																																																																																																			
100	100	6	51	mm	100	1592	314																																																																																																																																																			
Frame#	Time	LFHD			RFHD			LBHD			RBHD			C7			T10			CLAV			STRN			RBAK			LSHO			LUPA			LELB			LFRM			LWRA			LWRB			LFIN			RSHO			RUPA			RELB			RFRM			RWRA			RWRB			RFIN			LASI			RASI			LPSI			RPSI			LTHI			LKNE			LTIB			LANK			LHEE			LTOE			RTHI			RKNE			RTIB			RANK			RHEE			RTOE			*39			*40			*41			*42			*43			*44			*45			*46			*47			*48			*49			*50		
		X1	Y1	Z1	X2	Y2	Z2	X3	Y3	Z3	X4	Y4	Z4	X5	Y5	Z5	X6	Y6	Z6	X7	Y7	Z7	X8	Y8	Z8	X9	Y9	Z9	X10	Y10	Z10	X11	Y11	Z11	X12	Y12	Z12	X13	Y13	Z13	X14	Y14	Z14	X15	Y15	Z15	X16	Y16	Z16	X17	Y17	Z17	X18	Y18	Z18	X19	Y19	Z19	X20	Y20	Z20	X21	Y21	Z21	X22	Y22	Z22	X23	Y23	Z23	X24	Y24	Z24	X25	Y25	Z25	X26	Y26	Z26	X27	Y27	Z27	X28	Y28	Z28	X29	Y29	Z29	X30	Y30	Z30	X31	Y31	Z31	X32	Y32	Z32	X33	Y33	Z33	X34	Y34	Z34	X35	Y35	Z35	X36	Y36	Z36	X37	Y37	Z37	X38	Y38	Z38	X39	Y39	Z39	X40	Y40	Z40	X41	Y41	Z41	X42	Y42	Z42	X43	Y43	Z43	X44	Y44	Z44	X45	Y45	Z45	X46	Y46	Z46	X47	Y47	Z47	X48	Y48	Z48	X49	Y49	Z49	X50	Y50	Z50	X51	Y51	Z51
																																																																																																																																																										
40	0.39	-886.61676	1625.87476	-1518.30371	-893.26563	1635.73975	-1385.95557	-1008.4563	1566.6449	-1517.2002	-1010.25177	1576.44312	-1386.57629	-1025.60583	1420.22009	-1454.30884	-1065.90308	1109.13611	-1454.5332	-903.24023	1341.95984	-1452.88159	-864.31073	1175.63672	-1462.94324	-1079.94092	1246.35071	-1358.42834	-942.14264	1381.41687	-1608.22607	-944.52478	1185.01135	-1678.38245	-933.76257	1061.83704	-1689.88953	-899.58954	936.27655	-1689.17188	-870.94849	820.55652	-1658.09058	-896.28717	822.92651	-1708.09241	-877.61414	740.1001	-1696.19031	-946.55505	1363.34216	-1293.54785	-945.01538	1139.61816	-1222.67566	-930.64801	1027.29346	-1211.7511	-917.64484	890.80206	-1210.91162	-893.9707	794.2926	-1248.47034	-921.15039	790.24219	-1201.6853	-904.32983	717.36676	-1214.95435	-909.51227	936.90973	-1580.69165	-892.15533	945.54932	-1342.84045	-1067.51074	961.32904	-1518.80066	-1055.03369	977.15863	-1370.80127	-959.8313	634.12988	-1633.50916	-945.26141	454.3147	-1619.77148	-1103.07935	335.6947	-1612.71472	-1258.13171	200.04704	-1568.26526	-1305.06177	209.06758	-1523.67432	-1201.64954	60.04601	-1557.25171	-925.9527	653.5462	-1301.18677	-892.09521	475.72998	-1343.76318	-918.27887	287.48834	-1343.00757	-926.09631	72.68456	-1396.29224	-969.17908	40.73895	-1446.77356	-783.33606	38.16621	-1413.05103	-978.14545	1678.17053	-1473.88513	NaN	NaN	NaN	NaN	NaN	NaN	NaN	NaN	NaN	NaN	NaN	NaN	NaN	NaN	NaN	NaN	NaN	NaN	NaN	NaN	NaN	NaN	NaN	NaN	NaN	NaN	NaN	NaN	NaN	NaN	NaN	NaN	NaN
41	0.4	-878.62073	1626.20996	-1518.01465	-884.89111	1635.93176	-1385.59692	-1000.36652	1566.81067	-1516.58398	-1001.90082	1576.5509	-1386.18494	-1017.4895	1420.6864	-1453.34253	-1058.30615	1109.60547	-1453.20093	-895.27356	1342.17114	-1452.71802	-856.90131	1175.51648	-1462.81592	-1071.85754	1247.04846	-1356.98169	-935.28625	1381.21399	-1608.02258	-938.24652	1184.5625	-1677.9021	-927.79858	1061.44397	-1689.72095	-895.06818	935.44647	-1689.79785	-868.14252	819.15381	-1659.54907	-893.52435	822.19214	-1709.51074	-876.17902	738.96588	-1698.03491	-937.59521	1363.58386	-1293.12622	-934.29272	1140.06616	-1221.41833	-918.81091	1027.94836	-1209.91138	-904.33704	891.60358	-1208.7002	-879.94354	795.31934	-1246.12451	-906.66571	791.05048	-1199.25073	-888.98547	718.78979	-1212.06006	-902.0661	937.51422	-1580.20483	-884.31494	946.00293	-1342.22791	-1060.10168	961.00574	-1517.75427	-1047.30347	977.48956	-1369.74646	-947.81763	635.28876	-1633.45215	-928.71075	455.72687	-1619.83459	-1086.13696	337.29126	-1612.3186	-1241.07715	201.4449	-1568.06323	-1288.38599	209.42751	-1523.14624	-1182.79944	62.30201	-1558.95789	-919.78198	653.66473	-1301.19507	-887.7486	475.63446	-1343.47717	-915.98376	287.44177	-1342.89038	-926.11621	72.87186	-1396.43018	-969.15686	40.73179	-1446.80542	-783.30713	38.10958	-1413.15161	-970.09515	1678.38147	-1473.24207	NaN	NaN	NaN	NaN	NaN	NaN	NaN	NaN	NaN	NaN	NaN	NaN	NaN	NaN	NaN	NaN	NaN	NaN	NaN	NaN	NaN	NaN	NaN	NaN	NaN	NaN	NaN	NaN	NaN	NaN	NaN	NaN	NaN
42	0.41	-870.59564	1626.51514	-1517.69629	-876.62604	1636.09094	-1385.28931	-992.33325	1567.07251	-1516.09363	-993.43011	1576.5448	-1385.45508	-1009.49017	1421.14954	-1452.59863	-1050.85437	1110.07751	-1451.94202	-887.46069	1342.35095	-1452.61792	-849.54749	1175.6864	-1462.67566	-1063.94141	1247.8584	-1355.63171	-928.54504	1381.04736	-1607.84473	-932.24408	1184.29126	-1677.55396	-921.867	1061.22083	-1689.60388	-890.65924	934.76306	-1690.3175	-865.32788	817.91071	-1660.82703	-890.6665	821.59265	-1710.77917	-874.40826	738.14893	-1699.94263	-928.20789	1363.68909	-1292.46167	-923.58374	1140.64697	-1220.33069	-906.86743	1028.76501	-1208.30017	-890.89032	892.56256	-1206.65918	-865.67322	796.52979	-1243.95642	-892.12067	792.08496	-1196.85193	-873.04132	720.08679	-1209.49219	-895.50677	938.10736	-1579.56372	-876.59845	946.44775	-1341.49756	-1052.66895	960.95416	-1516.82385	-1039.67651	977.74817	-1368.76001	-935.23083	636.20551	-1632.97192	-912.5545	457.30917	-1619.8009	-1069.0144	338.31561	-1611.90198	-1223.1499	201.49324	-1567.55994	-1271.354	208.61015	-1522.8324	-1162.6073	64.26962	-1560.01868	-912.95239	653.70001	-1301.16638	-883.28552	475.45288	-1343.26379	-913.6618	287.41483	-1342.80103	-926.07538	72.93533	-1396.57581	-969.16095	40.9957	-1446.75049	-783.25342	38.06178	-1413.22559	-961.89362	1678.4209	-1472.50134	NaN	NaN	NaN	NaN	NaN	NaN	NaN	NaN	NaN	NaN	NaN	NaN	NaN	NaN	NaN	NaN	NaN	NaN	NaN	NaN	NaN	NaN	NaN	NaN	NaN	NaN	NaN	NaN	NaN	NaN	NaN	NaN	NaN
43	0.42	-862.56488	1626.79834	-1517.45911	-868.25073	1636.11511	-1385.03967	-984.31421	1567.34802	-1515.6283	-985.09113	1576.59741	-1384.953	-1001.62964	1421.60425	-1451.88953	-1043.42493	1110.52417	-1450.79871	-879.76373	1342.5542	-1452.53601	-842.34326	1175.95227	-1462.51587	-1055.98364	1248.45325	-1354.26416	-921.96576	1381.10815	-1607.72253	-926.54474	1184.15613	-1677.30823	-916.26923	1061.10657	-1689.56873	-886.33447	934.39233	-1690.89746	-862.23444	817.03278	-1662.10889	-887.50842	821.40308	-1712.14636	-872.13995	737.66046	-1701.84106	-919.68433	1364.19751	-1292.29724	-912.85968	1141.33899	-1219.40491	-894.81763	1029.77478	-1206.91748	-877.58344	893.7984	-1204.74585	-850.90448	798.02216	-1241.6792	-877.45093	793.35773	-1194.56738	-857.15717	721.74182	-1206.86035	-888.39813	938.9397	-1578.71167	-868.97394	946.80524	-1340.65417	-1045.19617	961.05994	-1515.98572	-1032.11865	977.87378	-1367.95374	-922.70282	637.12842	-1632.42676	-896.52435	458.71701	-1619.50623	-1051.75854	338.78076	-1611.48975	-1205.2627	201.10631	-1567.55603	-1253.92908	206.65768	-1522.78625	-1140.92358	65.46257	-1560.14612	-906.474	653.65753	-1301.16016	-878.88037	475.15268	-1343.17566	-911.0921	287.3284	-1342.70264	-925.98553	73.03632	-1396.65991	-969.13385	41.05224	-1446.88232	-783.15588	37.99939	-1413.3291	-953.75787	1678.55847	-1471.9585	NaN	NaN	NaN	NaN	NaN	NaN	NaN	NaN	NaN	NaN	NaN	NaN	NaN	NaN	NaN	NaN	NaN	NaN	NaN	NaN	NaN	NaN	NaN	NaN	NaN	NaN	NaN	NaN	NaN	NaN	NaN	NaN	NaN
44	0.43	-854.50702	1627.05176	-1517.23218	-859.98529	1636.19897	-1384.69409	-976.32019	1567.69971	-1515.2738	-976.92627	1576.86938	-1384.75256	-993.83105	1421.90588	-1451.15295	-1036.11633	1110.93103	-1449.70605	-871.81262	1342.56299	-1452.01099	-835.20734	1176.12537	-1462.30066	-1048.13367	1249.20532	-1353.15161	-915.45355	1381.23206	-1607.5343	-921.16364	1184.20569	-1677.18677	-910.9895	1061.20984	-1689.55396	-881.98517	934.24689	-1691.45618	-859.14758	816.52411	-1663.29858	-884.25995	821.43237	-1713.39221	-869.73419	737.55634	-1703.75232	-911.40979	1365.00061	-1292.20264	-902.27319	1142.25525	-1218.56091	-882.7522	1031.01404	-1205.74231	-863.94543	895.19934	-1203.11475	-837.26855	799.56458	-1240.0116	-862.73297	794.88037	-1192.43005	-841.27618	723.75226	-1204.27197	-879.00989	939.90753	-1577.41504	-861.68433	947.13403	-1339.67822	-1037.7356	961.32263	-1515.28186	-1024.6416	977.89301	-1367.21411	-910.40735	638.05237	-1631.82703	-880.7171	460.23563	-1619.11621	-1034.3429	338.63855	-1611.0144	-1185.99878	198.82967	-1566.99475	-1235.91223	203.43303	-1522.974	-1117.99109	66.26217	-1559.70728	-900.12396	653.62457	-1300.99487	-874.34619	474.96375	-1342.8927	-908.48242	287.30984	-1342.57361	-925.76923	73.14896	-1396.84863	-969.08411	41.24447	-1446.87512	-783.08667	37.95314	-1413.39941	-945.59741	1678.84119	-1471.46521	NaN	NaN	NaN	NaN	NaN	NaN	NaN	NaN	NaN	NaN	NaN	NaN	NaN	NaN	NaN	NaN	NaN	NaN	NaN	NaN	NaN	NaN	NaN	NaN	NaN	NaN	NaN	NaN	NaN	NaN	NaN	NaN	NaN
45	0.44	-846.42786	1627.26074	-1517.02307	-851.54083	1636.21802	-1384.52844	-968.34021	1568.12891	-1514.89917	-968.58344	1576.98303	-1384.24341	-986.30768	1422.27795	-1450.57007	-1028.83582	1111.25366	-1448.7699	-864.28229	1342.77319	-1452.01025	-828.11823	1176.28784	-1462.13037	-1040.21082	1249.8125	-1351.99512	-908.95319	1381.44885	-1607.38159	-915.95398	1184.3468	-1677.07361	-905.96735	1061.41052	-1689.67273	-877.7749	934.32043	-1692.04321	-855.90173	816.25201	-1664.3988	-880.91937	821.66583	-1714.49536	-866.89685	737.70721	-1705.60706	-902.91193	1365.61951	-1292.05579	-891.68475	1143.27161	-1217.8092	-870.75983	1032.36902	-1204.74377	-850.43762	896.84363	-1201.57434	-822.3656	801.54547	-1237.92493	-847.91791	796.63562	-1190.45984	-825.30566	725.91064	-1201.81262	-871.51007	940.90741	-1576.54077	-854.4057	947.42554	-1338.57898	-1030.24854	961.64349	-1514.60156	-1017.27136	977.81171	-1366.54956	-898.0921	638.9389	-1631.15015	-865.27338	461.75204	-1618.52112	-1016.65704	337.99316	-1610.48865	-1167.09363	196.72946	-1567.20972	-1217.38855	199.17096	-1523.18274	-1093.9021	66.39289	-1558.62048	-894.12994	653.32379	-1300.70667	-869.83228	474.64172	-1342.77209	-905.86536	287.23178	-1342.44434	-925.58618	73.29179	-1396.82068	-969.0365	41.46486	-1446.86377	-783.01611	37.90099	-1413.53467	-937.32837	1679.24707	-1471.01575	NaN	NaN	NaN	NaN	NaN	NaN	NaN	NaN	NaN	NaN	NaN	NaN	NaN	NaN	NaN	NaN	NaN	NaN	NaN	NaN	NaN	NaN	NaN	NaN	NaN	NaN	NaN	NaN	NaN	NaN	NaN	NaN	NaN
